<svg xmlns="http://www.w3.org/2000/svg" width="26.062" height="64" viewBox="0 0 26.062 64">
  <defs>
    <style>
      .cls-1 {
        fill: blue;
        fill-rule: evenodd;
      }
    </style>
  </defs>
  <path id="Icon" style="fill:#660C6B;" class="cls-1" d="M185.459,1620.26l-10.695,10.7a1.8,1.8,0,0,1-.335.47,1.285,1.285,0,0,1-.169.11,1.556,1.556,0,0,1-.33.22,2.374,2.374,0,0,1-.254.11,1.908,1.908,0,0,1-.676.13c-0.021,0-.04-0.01-0.061-0.01h-0.045a1.887,1.887,0,0,1-.532-0.11,1.808,1.808,0,0,1-.309-0.13c-0.065-.04-0.123-0.08-0.183-0.12a1.314,1.314,0,0,1-.636-0.67l-10.693-10.7a1.924,1.924,0,0,1,2.722-2.72l7.737,7.74V1570a2,2,0,0,1,4,0v55.28l7.737-7.74A1.924,1.924,0,0,1,185.459,1620.26Z" transform="translate(-159.969 -1568)"/>
</svg>