<svg xmlns="http://www.w3.org/2000/svg" viewBox="0 0 100% 100%" focusable="false" aria-hidden="true" class="ui-icon-navigation-wishlist-off"><path d="M40 74.8l-1.5-.9C37 72.9 0 50 0 30.3a27.3 27.3 0 0 1 5.7-17.1 21.1 21.1 0 0 1 17-8c8.7 0 14.3 5.1 17.2 8.9a21.5 21.5 0 0 1 17.6-8.9C72.1 5.2 80 18.1 80 30.3c0 20-37 42.7-38.6 43.6zm-17.3-64c-11.3 0-17.1 9.8-17.1 19.5 0 13.1 23.6 31 34.4 37.9 10.8-6.9 34.4-24.6 34.4-37.9 0-9.7-5.8-19.5-16.9-19.5s-14.9 9.6-15 9.7l-2.4 5.8-2.7-5.7c-.1-.4-4.7-9.8-14.7-9.8z" fill-rule="evenodd"></path></svg>